<mxfile host="app.diagrams.net" modified="2023-11-10T02:42:36.171Z" agent="Mozilla/5.0 (Macintosh; Intel Mac OS X 10_15_7) AppleWebKit/537.36 (KHTML, like Gecko) Chrome/119.0.0.0 Safari/537.36" etag="uxTlDtwTR8yrkFJswHYu" version="21.2.1" type="device">
  <diagram name="Page-1" id="74e2e168-ea6b-b213-b513-2b3c1d86103e">
    <mxGraphModel dx="1259" dy="632" grid="1" gridSize="10" guides="1" tooltips="1" connect="1" arrows="1" fold="1" page="1" pageScale="1" pageWidth="1100" pageHeight="850" background="none" math="0" shadow="0">
      <root>
        <mxCell id="0" />
        <mxCell id="1" parent="0" />
        <mxCell id="77e6c97f196da883-1" value="&lt;font style=&quot;font-size: 16px;&quot;&gt;Nam&#39;s Journey to Study in Canada&lt;/font&gt;" style="swimlane;html=1;childLayout=stackLayout;startSize=20;rounded=0;shadow=0;labelBackgroundColor=none;strokeWidth=1;fontFamily=Verdana;fontSize=8;align=center;" parent="1" vertex="1">
          <mxGeometry x="70" y="40" width="700" height="1290" as="geometry" />
        </mxCell>
        <mxCell id="77e6c97f196da883-2" value="Myself" style="swimlane;html=1;startSize=20;" parent="77e6c97f196da883-1" vertex="1">
          <mxGeometry y="20" width="220" height="1270" as="geometry" />
        </mxCell>
        <mxCell id="691dmvJyfyrccxbgGs03-6" value="" style="edgeStyle=orthogonalEdgeStyle;rounded=0;orthogonalLoop=1;jettySize=auto;html=1;" edge="1" parent="77e6c97f196da883-2" source="691dmvJyfyrccxbgGs03-3" target="691dmvJyfyrccxbgGs03-5">
          <mxGeometry relative="1" as="geometry" />
        </mxCell>
        <mxCell id="691dmvJyfyrccxbgGs03-3" value="Start" style="rounded=1;whiteSpace=wrap;html=1;fillColor=#d5e8d4;strokeColor=#82b366;" vertex="1" parent="77e6c97f196da883-2">
          <mxGeometry x="40" y="40" width="120" height="60" as="geometry" />
        </mxCell>
        <mxCell id="691dmvJyfyrccxbgGs03-5" value="Practice &amp;amp; Take IELTS Exam" style="rounded=0;whiteSpace=wrap;html=1;" vertex="1" parent="77e6c97f196da883-2">
          <mxGeometry x="40" y="150" width="120" height="60" as="geometry" />
        </mxCell>
        <mxCell id="691dmvJyfyrccxbgGs03-14" value="No" style="edgeStyle=orthogonalEdgeStyle;rounded=0;orthogonalLoop=1;jettySize=auto;html=1;exitX=0;exitY=0.5;exitDx=0;exitDy=0;" edge="1" parent="77e6c97f196da883-2" source="691dmvJyfyrccxbgGs03-10">
          <mxGeometry x="0.037" relative="1" as="geometry">
            <mxPoint x="40" y="180" as="targetPoint" />
            <Array as="points">
              <mxPoint x="20" y="280" />
              <mxPoint x="20" y="180" />
            </Array>
            <mxPoint as="offset" />
          </mxGeometry>
        </mxCell>
        <mxCell id="691dmvJyfyrccxbgGs03-16" value="" style="edgeStyle=orthogonalEdgeStyle;rounded=0;orthogonalLoop=1;jettySize=auto;html=1;" edge="1" parent="77e6c97f196da883-2" source="691dmvJyfyrccxbgGs03-10" target="691dmvJyfyrccxbgGs03-15">
          <mxGeometry relative="1" as="geometry" />
        </mxCell>
        <mxCell id="691dmvJyfyrccxbgGs03-17" value="Yes" style="edgeLabel;html=1;align=center;verticalAlign=middle;resizable=0;points=[];" vertex="1" connectable="0" parent="691dmvJyfyrccxbgGs03-16">
          <mxGeometry x="-0.0828" relative="1" as="geometry">
            <mxPoint as="offset" />
          </mxGeometry>
        </mxCell>
        <mxCell id="691dmvJyfyrccxbgGs03-10" value="Above 6.5?" style="rhombus;whiteSpace=wrap;html=1;" vertex="1" parent="77e6c97f196da883-2">
          <mxGeometry x="60" y="240" width="80" height="80" as="geometry" />
        </mxCell>
        <mxCell id="691dmvJyfyrccxbgGs03-22" value="" style="edgeStyle=orthogonalEdgeStyle;rounded=0;orthogonalLoop=1;jettySize=auto;html=1;" edge="1" parent="77e6c97f196da883-2" source="691dmvJyfyrccxbgGs03-15" target="691dmvJyfyrccxbgGs03-21">
          <mxGeometry relative="1" as="geometry" />
        </mxCell>
        <mxCell id="691dmvJyfyrccxbgGs03-15" value="Research &amp;amp; Pick a Program in a Canadian Universitie/College" style="whiteSpace=wrap;html=1;" vertex="1" parent="77e6c97f196da883-2">
          <mxGeometry x="40" y="365" width="120" height="60" as="geometry" />
        </mxCell>
        <mxCell id="691dmvJyfyrccxbgGs03-21" value="Apply for the Program" style="whiteSpace=wrap;html=1;" vertex="1" parent="77e6c97f196da883-2">
          <mxGeometry x="40" y="470" width="120" height="60" as="geometry" />
        </mxCell>
        <mxCell id="691dmvJyfyrccxbgGs03-28" value="Apply for the Visa" style="whiteSpace=wrap;html=1;" vertex="1" parent="77e6c97f196da883-2">
          <mxGeometry x="40" y="700" width="120" height="60" as="geometry" />
        </mxCell>
        <mxCell id="691dmvJyfyrccxbgGs03-40" value="" style="edgeStyle=orthogonalEdgeStyle;rounded=0;orthogonalLoop=1;jettySize=auto;html=1;" edge="1" parent="77e6c97f196da883-2" source="691dmvJyfyrccxbgGs03-37" target="691dmvJyfyrccxbgGs03-39">
          <mxGeometry relative="1" as="geometry" />
        </mxCell>
        <mxCell id="691dmvJyfyrccxbgGs03-37" value="Book a Flight Ticket" style="whiteSpace=wrap;html=1;" vertex="1" parent="77e6c97f196da883-2">
          <mxGeometry x="40" y="880" width="120" height="60" as="geometry" />
        </mxCell>
        <mxCell id="691dmvJyfyrccxbgGs03-39" value="Flight to Canada" style="whiteSpace=wrap;html=1;" vertex="1" parent="77e6c97f196da883-2">
          <mxGeometry x="40" y="1000" width="120" height="60" as="geometry" />
        </mxCell>
        <mxCell id="691dmvJyfyrccxbgGs03-41" value="End" style="rounded=1;whiteSpace=wrap;html=1;fillColor=#d5e8d4;strokeColor=#82b366;" vertex="1" parent="77e6c97f196da883-2">
          <mxGeometry x="40" y="1190" width="120" height="60" as="geometry" />
        </mxCell>
        <mxCell id="691dmvJyfyrccxbgGs03-49" style="edgeStyle=orthogonalEdgeStyle;rounded=0;orthogonalLoop=1;jettySize=auto;html=1;entryX=0.5;entryY=0;entryDx=0;entryDy=0;" edge="1" parent="77e6c97f196da883-2" source="691dmvJyfyrccxbgGs03-48" target="691dmvJyfyrccxbgGs03-41">
          <mxGeometry relative="1" as="geometry" />
        </mxCell>
        <mxCell id="691dmvJyfyrccxbgGs03-48" value="Start a new journey" style="whiteSpace=wrap;html=1;" vertex="1" parent="77e6c97f196da883-2">
          <mxGeometry x="40" y="1100" width="120" height="60" as="geometry" />
        </mxCell>
        <mxCell id="77e6c97f196da883-3" value="IDP" style="swimlane;html=1;startSize=20;" parent="77e6c97f196da883-1" vertex="1">
          <mxGeometry x="220" y="20" width="130" height="1270" as="geometry" />
        </mxCell>
        <mxCell id="691dmvJyfyrccxbgGs03-18" value="Await Response" style="shape=delay;whiteSpace=wrap;html=1;" vertex="1" parent="77e6c97f196da883-3">
          <mxGeometry x="25" y="160" width="80" height="40" as="geometry" />
        </mxCell>
        <mxCell id="77e6c97f196da883-4" value="School" style="swimlane;html=1;startSize=20;" parent="77e6c97f196da883-1" vertex="1">
          <mxGeometry x="350" y="20" width="160" height="1270" as="geometry" />
        </mxCell>
        <mxCell id="691dmvJyfyrccxbgGs03-23" value="Await Response" style="shape=delay;whiteSpace=wrap;html=1;" vertex="1" parent="77e6c97f196da883-4">
          <mxGeometry x="40" y="480" width="80" height="40" as="geometry" />
        </mxCell>
        <mxCell id="691dmvJyfyrccxbgGs03-57" value="Application accepted?" style="rhombus;whiteSpace=wrap;html=1;" vertex="1" parent="77e6c97f196da883-4">
          <mxGeometry x="40" y="560" width="80" height="80" as="geometry" />
        </mxCell>
        <mxCell id="691dmvJyfyrccxbgGs03-27" style="edgeStyle=orthogonalEdgeStyle;rounded=0;orthogonalLoop=1;jettySize=auto;html=1;entryX=0.5;entryY=0;entryDx=0;entryDy=0;" edge="1" parent="77e6c97f196da883-4" source="691dmvJyfyrccxbgGs03-23" target="691dmvJyfyrccxbgGs03-57">
          <mxGeometry relative="1" as="geometry">
            <mxPoint x="-210" y="600" as="targetPoint" />
            <Array as="points" />
          </mxGeometry>
        </mxCell>
        <mxCell id="77e6c97f196da883-5" value="IRCC" style="swimlane;html=1;startSize=20;" parent="77e6c97f196da883-1" vertex="1">
          <mxGeometry x="510" y="20" width="190" height="1270" as="geometry" />
        </mxCell>
        <mxCell id="691dmvJyfyrccxbgGs03-54" style="edgeStyle=orthogonalEdgeStyle;rounded=0;orthogonalLoop=1;jettySize=auto;html=1;entryX=0.5;entryY=0;entryDx=0;entryDy=0;" edge="1" parent="77e6c97f196da883-5" source="691dmvJyfyrccxbgGs03-30" target="691dmvJyfyrccxbgGs03-53">
          <mxGeometry relative="1" as="geometry" />
        </mxCell>
        <mxCell id="691dmvJyfyrccxbgGs03-30" value="Await Response" style="shape=delay;whiteSpace=wrap;html=1;" vertex="1" parent="77e6c97f196da883-5">
          <mxGeometry x="40" y="710" width="80" height="40" as="geometry" />
        </mxCell>
        <mxCell id="691dmvJyfyrccxbgGs03-45" value="Issue Study Permit?" style="rhombus;whiteSpace=wrap;html=1;" vertex="1" parent="77e6c97f196da883-5">
          <mxGeometry x="40" y="990" width="80" height="80" as="geometry" />
        </mxCell>
        <mxCell id="691dmvJyfyrccxbgGs03-53" value="Visa approved?" style="rhombus;whiteSpace=wrap;html=1;" vertex="1" parent="77e6c97f196da883-5">
          <mxGeometry x="40" y="780" width="80" height="80" as="geometry" />
        </mxCell>
        <mxCell id="691dmvJyfyrccxbgGs03-58" value="Being forced to fly back to Vietnam" style="whiteSpace=wrap;html=1;" vertex="1" parent="77e6c97f196da883-5">
          <mxGeometry x="20" y="1190" width="120" height="60" as="geometry" />
        </mxCell>
        <mxCell id="691dmvJyfyrccxbgGs03-46" value="No" style="edgeStyle=orthogonalEdgeStyle;rounded=0;orthogonalLoop=1;jettySize=auto;html=1;exitX=1;exitY=0.5;exitDx=0;exitDy=0;entryX=1;entryY=0.5;entryDx=0;entryDy=0;" edge="1" parent="77e6c97f196da883-5" source="691dmvJyfyrccxbgGs03-45" target="691dmvJyfyrccxbgGs03-58">
          <mxGeometry x="-0.1344" relative="1" as="geometry">
            <mxPoint x="120" y="1051" as="sourcePoint" />
            <mxPoint x="290" y="1220" as="targetPoint" />
            <Array as="points">
              <mxPoint x="160" y="1030" />
              <mxPoint x="160" y="1221" />
            </Array>
            <mxPoint as="offset" />
          </mxGeometry>
        </mxCell>
        <mxCell id="691dmvJyfyrccxbgGs03-19" style="edgeStyle=orthogonalEdgeStyle;rounded=0;orthogonalLoop=1;jettySize=auto;html=1;entryX=0;entryY=0.5;entryDx=0;entryDy=0;" edge="1" parent="77e6c97f196da883-1" source="691dmvJyfyrccxbgGs03-5" target="691dmvJyfyrccxbgGs03-18">
          <mxGeometry relative="1" as="geometry" />
        </mxCell>
        <mxCell id="691dmvJyfyrccxbgGs03-20" style="edgeStyle=orthogonalEdgeStyle;rounded=0;orthogonalLoop=1;jettySize=auto;html=1;entryX=1;entryY=0.5;entryDx=0;entryDy=0;" edge="1" parent="77e6c97f196da883-1" source="691dmvJyfyrccxbgGs03-18" target="691dmvJyfyrccxbgGs03-10">
          <mxGeometry relative="1" as="geometry">
            <Array as="points">
              <mxPoint x="285" y="300" />
            </Array>
          </mxGeometry>
        </mxCell>
        <mxCell id="691dmvJyfyrccxbgGs03-24" style="edgeStyle=orthogonalEdgeStyle;rounded=0;orthogonalLoop=1;jettySize=auto;html=1;entryX=0;entryY=0.5;entryDx=0;entryDy=0;" edge="1" parent="77e6c97f196da883-1" source="691dmvJyfyrccxbgGs03-21" target="691dmvJyfyrccxbgGs03-23">
          <mxGeometry relative="1" as="geometry" />
        </mxCell>
        <mxCell id="691dmvJyfyrccxbgGs03-32" style="edgeStyle=orthogonalEdgeStyle;rounded=0;orthogonalLoop=1;jettySize=auto;html=1;entryX=0;entryY=0.5;entryDx=0;entryDy=0;" edge="1" parent="77e6c97f196da883-1" source="691dmvJyfyrccxbgGs03-28" target="691dmvJyfyrccxbgGs03-30">
          <mxGeometry relative="1" as="geometry" />
        </mxCell>
        <mxCell id="691dmvJyfyrccxbgGs03-44" style="edgeStyle=orthogonalEdgeStyle;rounded=0;orthogonalLoop=1;jettySize=auto;html=1;entryX=0;entryY=0.5;entryDx=0;entryDy=0;" edge="1" parent="77e6c97f196da883-1" source="691dmvJyfyrccxbgGs03-39" target="691dmvJyfyrccxbgGs03-45">
          <mxGeometry relative="1" as="geometry">
            <mxPoint x="560" y="1070" as="targetPoint" />
          </mxGeometry>
        </mxCell>
        <mxCell id="691dmvJyfyrccxbgGs03-47" style="edgeStyle=orthogonalEdgeStyle;rounded=0;orthogonalLoop=1;jettySize=auto;html=1;entryX=1;entryY=0.5;entryDx=0;entryDy=0;" edge="1" parent="77e6c97f196da883-1" source="691dmvJyfyrccxbgGs03-45" target="691dmvJyfyrccxbgGs03-48">
          <mxGeometry relative="1" as="geometry">
            <mxPoint x="90" y="1160" as="targetPoint" />
            <Array as="points">
              <mxPoint x="590" y="1150" />
            </Array>
          </mxGeometry>
        </mxCell>
        <mxCell id="691dmvJyfyrccxbgGs03-50" value="Yes" style="edgeLabel;html=1;align=center;verticalAlign=middle;resizable=0;points=[];" vertex="1" connectable="0" parent="691dmvJyfyrccxbgGs03-47">
          <mxGeometry x="-0.9125" y="-2" relative="1" as="geometry">
            <mxPoint x="2" y="9" as="offset" />
          </mxGeometry>
        </mxCell>
        <mxCell id="691dmvJyfyrccxbgGs03-36" value="No" style="edgeStyle=orthogonalEdgeStyle;rounded=0;orthogonalLoop=1;jettySize=auto;html=1;entryX=0;entryY=0.5;entryDx=0;entryDy=0;exitX=0;exitY=0.5;exitDx=0;exitDy=0;" edge="1" parent="77e6c97f196da883-1">
          <mxGeometry x="-0.9344" relative="1" as="geometry">
            <mxPoint x="551" y="840" as="sourcePoint" />
            <mxPoint x="41" y="750" as="targetPoint" />
            <Array as="points">
              <mxPoint x="21" y="840" />
              <mxPoint x="21" y="750" />
            </Array>
            <mxPoint as="offset" />
          </mxGeometry>
        </mxCell>
        <mxCell id="691dmvJyfyrccxbgGs03-55" style="edgeStyle=orthogonalEdgeStyle;rounded=0;orthogonalLoop=1;jettySize=auto;html=1;entryX=1;entryY=0.5;entryDx=0;entryDy=0;" edge="1" parent="77e6c97f196da883-1" source="691dmvJyfyrccxbgGs03-53" target="691dmvJyfyrccxbgGs03-37">
          <mxGeometry relative="1" as="geometry">
            <mxPoint x="180" y="910" as="targetPoint" />
            <Array as="points">
              <mxPoint x="590" y="930" />
            </Array>
          </mxGeometry>
        </mxCell>
        <mxCell id="691dmvJyfyrccxbgGs03-56" value="Yes" style="edgeLabel;html=1;align=center;verticalAlign=middle;resizable=0;points=[];" vertex="1" connectable="0" parent="691dmvJyfyrccxbgGs03-55">
          <mxGeometry x="-0.4175" y="-1" relative="1" as="geometry">
            <mxPoint x="30" y="1" as="offset" />
          </mxGeometry>
        </mxCell>
        <mxCell id="691dmvJyfyrccxbgGs03-29" value="Yes" style="edgeStyle=orthogonalEdgeStyle;rounded=0;orthogonalLoop=1;jettySize=auto;html=1;exitX=0.5;exitY=1;exitDx=0;exitDy=0;" edge="1" parent="77e6c97f196da883-1" source="691dmvJyfyrccxbgGs03-57" target="691dmvJyfyrccxbgGs03-28">
          <mxGeometry relative="1" as="geometry">
            <mxPoint x="100" y="660" as="sourcePoint" />
          </mxGeometry>
        </mxCell>
        <mxCell id="691dmvJyfyrccxbgGs03-31" value="No" style="edgeStyle=orthogonalEdgeStyle;rounded=0;orthogonalLoop=1;jettySize=auto;html=1;entryX=0;entryY=0.5;entryDx=0;entryDy=0;exitX=0;exitY=0.5;exitDx=0;exitDy=0;" edge="1" parent="77e6c97f196da883-1" source="691dmvJyfyrccxbgGs03-57" target="691dmvJyfyrccxbgGs03-15">
          <mxGeometry relative="1" as="geometry">
            <mxPoint x="60" y="620" as="sourcePoint" />
            <Array as="points">
              <mxPoint x="20" y="620" />
              <mxPoint x="20" y="415" />
            </Array>
          </mxGeometry>
        </mxCell>
        <mxCell id="691dmvJyfyrccxbgGs03-59" style="edgeStyle=orthogonalEdgeStyle;rounded=0;orthogonalLoop=1;jettySize=auto;html=1;entryX=1;entryY=0.5;entryDx=0;entryDy=0;" edge="1" parent="77e6c97f196da883-1" source="691dmvJyfyrccxbgGs03-58" target="691dmvJyfyrccxbgGs03-41">
          <mxGeometry relative="1" as="geometry" />
        </mxCell>
      </root>
    </mxGraphModel>
  </diagram>
</mxfile>
